<?xml version="1.0" standalone="no"?>
<!DOCTYPE svg PUBLIC "-//W3C//DTD SVG 20010904//EN"
 "http://www.w3.org/TR/2001/REC-SVG-20010904/DTD/svg10.dtd">
<svg version="1.0" xmlns="http://www.w3.org/2000/svg"
 width="742.000000pt" height="573.000000pt" viewBox="0 0 742.000000 573.000000"
 preserveAspectRatio="xMidYMid meet">

<g transform="translate(0.000000,573.000000) scale(0.100000,-0.100000)"
fill="#000000" stroke="none">
<path d="M2824 5700 c-22 -5 -128 -33 -235 -63 -107 -31 -324 -92 -484 -137
-159 -44 -312 -91 -338 -102 -85 -39 -144 -122 -173 -245 -14 -61 -16 -285
-18 -2163 -2 -1170 1 -2130 6 -2174 13 -114 58 -223 119 -290 28 -30 60 -58
72 -62 12 -4 45 -17 74 -30 28 -13 56 -24 61 -24 5 0 76 -25 158 -56 82 -30
192 -71 244 -89 52 -19 151 -54 220 -79 395 -141 389 -139 497 -144 96 -4 179
7 208 28 6 5 19 10 30 14 12 3 9 4 -8 2 -15 -2 -30 1 -33 5 -3 5 -17 9 -32 9
l-27 0 23 18 c12 10 29 30 37 46 14 25 13 27 0 16 -8 -7 -15 -18 -15 -24 0
-12 -117 -53 -126 -44 -2 3 17 13 43 23 61 24 84 46 122 120 26 50 33 78 41
165 11 125 12 3673 0 4460 -8 584 -8 585 -69 682 -16 26 -41 54 -56 64 -30 20
-192 67 -205 59 -4 -3 -10 -1 -12 4 -5 14 -78 20 -124 11z m256 -181 c7 -27
10 -53 7 -56 -3 -3 -9 8 -12 23 -4 16 -11 39 -16 52 -11 29 -12 45 0 38 5 -3
14 -29 21 -57z m-1005 -315 c4 -30 2 -50 -6 -60 -6 -8 -8 -14 -4 -14 5 0 0 -9
-10 -20 -23 -25 -58 -22 -64 5 -3 16 -1 17 11 7 12 -10 17 -7 26 13 10 21 9
25 -3 25 -8 0 -15 3 -15 6 0 12 44 84 51 84 4 0 10 -21 14 -46z m-319 -242
c-12 -11 -17 7 -9 34 l8 29 3 -28 c2 -16 1 -31 -2 -35z m14 -501 c0 -11 -4
-23 -10 -26 -6 -4 -10 5 -10 19 0 14 5 26 10 26 6 0 10 -9 10 -19z m1390
-4351 c0 -5 -4 -10 -10 -10 -5 0 -10 5 -10 10 0 6 5 10 10 10 6 0 10 -4 10
-10z"/>
<path d="M4035 4631 c-47 -21 -101 -79 -126 -135 -38 -88 -41 -173 -35 -1131
9 -1565 11 -2814 3 -2821 -3 -4 -12 -2 -19 3 -7 6 -30 16 -50 22 -27 9 -38 18
-38 32 0 22 18 24 46 5 11 -8 28 -16 37 -18 17 -3 17 53 16 1002 -1 553 -4
1361 -8 1795 l-6 790 -30 -4 c-16 -2 -43 -5 -59 -5 l-29 -1 6 -1870 c5 -1834
6 -1872 25 -1927 27 -77 65 -124 120 -148 24 -11 52 -28 61 -39 22 -25 95 -61
125 -61 13 0 86 16 162 35 77 18 342 84 589 145 425 104 563 141 610 159 82
33 81 33 60 41 -12 4 -23 3 -27 -4 -6 -8 -10 -7 -16 2 -5 7 -16 10 -25 6 -23
-8 -22 -4 12 63 17 32 35 81 41 108 12 50 6 1967 -9 3150 l-6 500 -29 63 c-33
71 -85 122 -143 141 -51 16 -1077 121 -1178 121 -22 0 -58 -9 -80 -19z m-118
-213 c-3 -8 -6 -5 -6 6 -1 11 2 17 5 13 3 -3 4 -12 1 -19z m119 -63 c-9 -33
-14 -41 -15 -25 -1 31 21 110 26 90 1 -8 -3 -37 -11 -65z m10 -472 c-9 -39
-12 -43 -14 -21 -3 23 12 68 22 68 2 0 -2 -21 -8 -47z m-157 -3457 c3 -52 3
-92 0 -88 -9 10 -22 199 -13 190 4 -4 10 -50 13 -102z"/>
<path d="M3766 4450 c-15 -40 -26 -112 -26 -173 0 -65 1 -67 23 -62 12 3 35 7
51 10 16 2 33 10 37 16 4 7 7 60 7 118 -1 58 -3 96 -5 84 -5 -25 -18 -30 -26
-10 -4 9 -6 9 -6 -1 -1 -7 -5 -10 -11 -7 -5 3 -10 0 -11 -7 0 -7 -7 1 -14 17
-10 22 -15 26 -19 15z m11 -67 c-3 -10 -5 -4 -5 12 0 17 2 24 5 18 2 -7 2 -21
0 -30z m50 -45 c-3 -8 -6 -5 -6 6 -1 11 2 17 5 13 3 -3 4 -12 1 -19z"/>
<path d="M6840 1539 c0 -9 -43 -10 -160 -6 l-160 5 0 -44 0 -44 -40 0 -40 0 0
40 0 40 -80 0 c-73 0 -80 -2 -80 -20 0 -18 -7 -20 -80 -20 -73 0 -80 -2 -80
-20 0 -18 -7 -20 -82 -22 -46 -2 43 -5 197 -8 l280 -5 -230 -4 c-126 -1 -270
-8 -320 -15 l-90 -12 85 -7 c47 -4 207 -9 355 -12 149 -2 417 -8 598 -11 l327
-7 0 41 0 42 40 0 40 0 0 -40 c0 -59 27 -54 32 6 5 63 -13 74 -114 74 -71 0
-78 2 -78 20 0 17 -7 20 -40 20 -33 0 -40 -3 -40 -20 0 -11 -4 -20 -8 -20 -5
0 -17 9 -27 20 -14 15 -31 20 -72 20 -29 0 -53 5 -53 10 0 6 -18 10 -40 10
-23 0 -40 -5 -40 -11z m-577 -136 c-57 -2 -149 -2 -205 0 -57 1 -11 3 102 3
113 0 159 -2 103 -3z m204 1 c-3 -3 -12 -4 -19 -1 -8 3 -5 6 6 6 11 1 17 -2
13 -5z"/>
<path d="M1853 3 c1021 -2 2693 -2 3715 0 1021 1 185 2 -1858 2 -2043 0 -2879
-1 -1857 -2z"/>
</g>
</svg>
