<?xml version="1.0" standalone="no"?>
<!DOCTYPE svg PUBLIC "-//W3C//DTD SVG 20010904//EN"
 "http://www.w3.org/TR/2001/REC-SVG-20010904/DTD/svg10.dtd">
<svg version="1.0" xmlns="http://www.w3.org/2000/svg"
 width="714.000000pt" height="653.000000pt" viewBox="0 0 714.000000 653.000000"
 preserveAspectRatio="xMidYMid meet">

<g transform="translate(0.000000,653.000000) scale(0.100000,-0.100000)"
fill="#000000" stroke="none">
<path d="M2154 6350 c-6 -6 -329 -10 -859 -12 l-850 -3 -64 -23 c-111 -40
-231 -133 -285 -222 -26 -42 -63 -133 -71 -175 -5 -29 -5 -29 10 5 10 23 13
26 10 10 -3 -14 -8 -45 -12 -70 -7 -43 -7 -44 -14 -15 -5 22 -7 11 -8 -37 0
-36 -4 -74 -8 -84 -5 -13 -3 -15 7 -9 11 7 12 -33 6 -225 -4 -128 -10 -240
-14 -248 -3 -10 -1 -13 6 -8 13 8 15 -182 3 -499 -3 -99 -4 -181 -1 -182 3 -2
3 -879 2 -1950 -3 -1475 -1 -1961 8 -2003 16 -73 70 -185 114 -236 41 -48 114
-89 206 -115 62 -18 125 -19 1271 -19 1198 0 1206 0 1270 21 35 12 85 32 111
45 59 30 63 15 6 -26 -45 -33 -136 -64 -229 -79 -54 -9 -2134 2 -2339 13 l-75
3 55 -18 c52 -17 154 -18 2015 -18 2163 -1 2012 -5 2139 62 83 44 183 146 223
227 60 124 63 150 63 560 l0 373 -32 -7 c-95 -20 -295 -25 -900 -26 l-668 0 0
1510 c0 961 3 1510 10 1510 5 0 32 -9 61 -20 43 -17 57 -19 85 -10 40 13 94
74 129 144 31 62 31 79 2 95 -64 34 -98 161 -62 231 13 25 14 32 3 28 -37 -15
-211 -59 -219 -56 -6 2 -10 200 -9 513 0 308 -4 536 -10 575 -36 222 -227 414
-447 451 -37 6 -76 15 -85 20 -24 12 -541 12 -554 -1z m556 -25 l65 -15 -55 5
c-30 3 -169 5 -308 5 -166 0 -251 3 -247 10 10 16 467 12 545 -5z m-2182 -12
c-10 -2 -26 -2 -35 0 -10 3 -2 5 17 5 19 0 27 -2 18 -5z m-75 -10 c-7 -2 -19
-2 -25 0 -7 3 -2 5 12 5 14 0 19 -2 13 -5z m2392 -3 c14 -7 8 -8 -20 -3 -22 3
-42 7 -44 9 -9 8 45 2 64 -6z m-37 -23 c89 -24 163 -61 213 -107 l44 -39 -76
38 c-133 68 -93 66 -1394 66 l-1170 0 -85 -28 c-138 -45 -127 -43 -111 -23 30
36 182 93 296 109 17 2 523 4 1125 3 999 -2 1101 -3 1158 -19z m-23 -72 c96
-25 145 -54 228 -134 90 -86 100 -104 124 -198 15 -58 17 -128 18 -493 0 -234
4 -1167 9 -2075 9 -1782 1 -2475 -31 -2559 -8 -23 -18 -63 -23 -91 -35 -221
-135 -337 -330 -386 -81 -21 -2239 -21 -2320 0 -177 44 -275 143 -316 317 -8
38 -24 95 -35 126 -16 49 -20 107 -30 415 -9 333 -14 2646 -5 2661 2 4 7 454
11 1001 l7 995 23 83 c13 47 29 93 37 102 97 132 125 160 207 201 97 48 94 48
1266 49 961 1 1108 -1 1160 -14z m396 -200 c17 -36 33 -84 35 -108 4 -39 3
-38 -14 18 -10 33 -28 81 -40 108 -11 26 -19 47 -16 47 3 0 19 -29 35 -65z"/>
<path d="M481 6164 c-130 -28 -204 -81 -255 -182 -54 -108 -51 48 -51 -2757
l0 -2600 22 -70 c41 -129 124 -205 259 -240 54 -14 193 -15 1190 -13 l1129 3
54 22 c123 51 187 125 221 259 20 76 20 124 20 2653 0 2778 2 2639 -50 2742
-49 95 -138 159 -257 184 -99 21 -2185 20 -2282 -1z m1399 -464 c0 -6 -93 -10
-259 -10 -163 0 -262 4 -266 10 -4 7 85 10 259 10 171 0 266 -4 266 -10z
m-1420 -496 c0 -21 -5 -34 -13 -34 -9 0 -11 12 -9 40 5 48 22 43 22 -6z m434
36 c14 -5 26 -14 26 -20 0 -7 -6 -8 -19 0 -11 5 -32 10 -46 10 -14 0 -35 -5
-46 -10 -13 -8 -19 -7 -19 0 0 24 63 36 104 20z m564 -33 c3 -32 0 -37 -17
-37 -12 0 -21 4 -21 10 0 5 7 7 15 4 8 -4 15 -1 15 5 0 6 -6 11 -14 11 -22 0
-29 19 -15 36 19 23 34 11 37 -29z m159 27 c3 -9 1 -25 -5 -35 -9 -13 -8 -19
1 -22 7 -3 -1 -6 -17 -6 l-29 -1 21 23 c26 28 28 37 6 37 -8 0 -12 5 -9 10 9
15 25 12 32 -6z m98 -14 c20 -39 20 -57 0 -40 -12 10 -18 10 -30 0 -9 -7 -18
-11 -20 -8 -6 5 22 78 30 78 2 0 11 -13 20 -30z m55 4 c0 -21 18 -17 25 6 11
35 25 22 24 -22 0 -33 -2 -38 -9 -23 -7 18 -8 19 -15 3 -4 -10 -11 -18 -16
-18 -5 0 -10 8 -10 18 -1 16 -2 16 -6 0 -8 -33 -19 -18 -15 22 4 36 22 48 22
14z m1180 -21 c0 -7 -4 -13 -10 -13 -5 0 -10 8 -10 18 0 10 -6 24 -12 32 -7 8
-3 6 10 -4 12 -11 22 -25 22 -33z m-2413 -3 c10 -25 9 -26 -22 -26 -19 0 -32
3 -30 7 3 3 9 19 15 34 11 30 19 26 37 -15z m56 33 c-7 -2 -13 -18 -13 -34 0
-41 -17 -36 -22 6 -4 32 -2 35 22 34 14 0 19 -3 13 -6z m51 -17 c-1 -9 2 -16
7 -16 18 0 9 -28 -11 -33 -23 -6 -48 17 -30 28 6 4 9 13 6 20 -2 7 -2 16 2 19
10 11 27 0 26 -18z m69 17 c-7 -2 -13 -18 -13 -34 0 -16 -5 -29 -11 -29 -6 0
-8 9 -4 20 4 12 1 27 -5 35 -10 13 -8 15 16 14 16 0 23 -3 17 -6z m847 -29 c0
-32 -2 -35 -22 -28 -32 9 -33 10 -14 39 23 35 36 31 36 -11z m-1140 -4 c0 -16
-4 -30 -10 -30 -5 0 -10 14 -10 30 0 17 5 30 10 30 6 0 10 -13 10 -30z m2495
5 c0 -18 -7 -20 -67 -20 -36 0 -64 -3 -61 -7 2 -5 -1 -8 -6 -8 -13 0 -13 2 -1
35 9 25 13 26 72 23 55 -3 63 -5 63 -23z m-2525 -15 c0 -11 -4 -20 -10 -20 -5
0 -10 9 -10 20 0 11 5 20 10 20 6 0 10 -9 10 -20z m504 12 c3 -5 -15 -9 -39
-9 -24 0 -42 4 -39 9 3 4 20 8 39 8 19 0 36 -4 39 -8z m-534 -23 c0 -5 -7 -9
-15 -9 -15 0 -20 12 -9 23 8 8 24 -1 24 -14z m510 -9 c0 -5 -7 -10 -15 -10 -8
0 -15 5 -15 10 0 6 7 10 15 10 8 0 15 -4 15 -10z m11 -256 c24 -26 24 -26 21
-217 -4 -253 11 -237 -228 -237 -234 0 -245 6 -243 123 2 49 3 55 8 27 6 -34
7 -35 58 -37 61 -2 73 9 45 40 -26 29 -42 61 -42 84 0 13 -11 22 -32 28 l-33
10 -3 78 c-3 71 -1 79 22 102 25 25 26 25 214 25 l189 0 24 -26z m634 1 c35
-34 33 -53 -6 -47 -25 4 -36 -1 -55 -24 l-23 -29 -1 25 c0 15 -3 20 -8 13 -5
-8 -47 -11 -137 -10 -107 2 -130 5 -133 17 -2 12 -13 15 -42 12 -47 -5 -51 8
-15 43 24 25 26 25 210 25 184 0 186 0 210 -25z m640 0 c25 -24 25 -26 25
-216 0 -246 4 -239 -148 -239 l-104 0 7 40 c4 26 3 40 -4 40 -6 0 -11 -18 -11
-40 l0 -40 -84 0 c-68 0 -88 4 -107 19 -23 19 -24 24 -27 198 -3 199 -1 214
30 243 20 19 35 20 210 20 187 0 189 0 213 -25z m640 0 c25 -24 25 -26 25
-204 0 -111 -4 -189 -11 -204 -19 -41 -49 -47 -229 -47 -180 0 -210 6 -229 47
-7 15 -11 93 -11 204 0 244 -16 229 240 229 189 0 191 0 215 -25z m-1250 -267
c0 -131 -1 -138 -24 -162 l-24 -26 -191 0 c-200 1 -211 3 -234 47 -13 23 -17
265 -5 277 4 3 113 5 242 4 l236 -3 0 -137z m-922 -255 c-7 -2 -14 -17 -14
-31 l-2 -27 -4 25 c-3 14 -10 28 -17 32 -6 4 3 7 19 7 17 0 24 -3 18 -6z m537
-2 c0 -5 -8 -8 -17 -7 -10 0 -19 -7 -21 -18 -3 -15 0 -18 17 -13 12 3 21 1 21
-4 0 -15 -40 -10 -46 6 -9 23 3 45 26 45 11 0 20 -4 20 -9z m77 -38 c-3 -10
-5 -2 -5 17 0 19 2 27 5 18 2 -10 2 -26 0 -35z m173 17 c0 -16 -4 -30 -10 -30
-5 0 -7 7 -4 15 4 8 1 15 -5 15 -6 0 -11 -8 -11 -17 0 -12 -3 -14 -11 -6 -13
13 -4 33 17 33 8 0 14 5 14 10 0 6 2 10 5 10 3 0 5 -13 5 -30z m430 16 c0 -7
-11 -21 -25 -30 -25 -16 -25 -16 -25 14 0 25 4 30 25 30 15 0 25 -6 25 -14z
m50 -19 c0 -4 -4 -6 -9 -2 -6 3 -14 -3 -20 -12 -9 -15 -10 -13 -11 15 0 30 2
31 20 20 11 -7 20 -16 20 -21z m89 1 c0 -31 -1 -31 -10 -10 -5 13 -7 28 -3 33
10 16 14 9 13 -23z m486 22 c4 -6 -4 -9 -17 -7 -15 1 -23 -3 -23 -13 0 -10 8
-14 25 -12 23 2 24 2 8 -14 -14 -14 -20 -15 -32 -4 -16 13 -21 42 -9 53 10 10
41 8 48 -3z m-1715 -26 c0 -14 -4 -23 -10 -19 -5 3 -10 15 -10 26 0 10 5 19
10 19 6 0 10 -12 10 -26z m-80 6 c0 -5 -6 -7 -14 -4 -8 3 -16 -2 -19 -13 -4
-14 -5 -14 -6 5 -1 16 5 22 19 22 11 0 20 -4 20 -10z m43 -9 c3 -14 0 -19 -12
-18 -9 0 -17 9 -17 19 0 24 22 23 29 -1z m507 -1 c0 -11 -4 -20 -10 -20 -5 0
-10 9 -10 20 0 11 5 20 10 20 6 0 10 -9 10 -20z m76 8 c5 -8 2 -9 -9 -5 -12 4
-17 1 -17 -11 0 -14 -2 -15 -9 -2 -6 8 -7 18 -5 22 8 12 32 10 40 -4z m53 -10
c-1 -17 -2 -19 -6 -5 -2 9 -8 17 -13 17 -5 0 -11 -8 -13 -17 -4 -14 -5 -12 -6
5 -1 16 5 22 19 22 14 0 20 -6 19 -22z m110 0 c0 -16 -2 -18 -6 -8 -3 8 -11
18 -17 22 -7 5 -4 8 7 8 11 0 17 -7 16 -22z m34 2 c-3 -11 -9 -20 -14 -20 -5
0 -9 9 -9 20 0 11 6 20 14 20 9 0 12 -7 9 -20z m457 0 c0 -23 -35 -28 -43 -6
-7 18 1 26 25 26 11 0 18 -7 18 -20z m90 0 c0 -13 -7 -20 -20 -20 -13 0 -20 7
-20 20 0 13 7 20 20 20 13 0 20 -7 20 -20z m47 0 c1 -11 0 -20 -1 -20 -2 0
-11 9 -21 20 -18 19 -17 20 1 20 13 0 20 -7 21 -20z m433 0 c0 -13 -7 -20 -20
-20 -11 0 -20 5 -20 10 0 6 6 10 13 10 8 0 7 4 -3 10 -12 8 -11 10 8 10 15 0
22 -6 22 -20z m140 7 c0 -5 -7 -6 -16 -3 -14 5 -15 4 -4 -9 10 -12 10 -15 -4
-15 -9 0 -16 6 -17 13 0 10 -2 10 -6 0 -7 -19 -23 -16 -24 5 -1 16 -2 16 -6 0
-5 -22 -23 -24 -23 -3 0 21 -18 19 -23 -2 -4 -14 -5 -13 -6 4 -1 21 3 22 64
21 36 0 65 -5 65 -11z m29 -4 c-7 -10 -15 -20 -16 -22 -2 -2 -3 5 -3 17 0 14
6 22 16 22 14 0 15 -3 3 -17z m61 -3 c0 -11 -4 -20 -10 -20 -5 0 -10 6 -10 14
0 8 -6 17 -12 19 -7 3 -3 6 10 6 16 1 22 -5 22 -19z m-1870 -210 c11 -11 20
-25 20 -31 0 -7 -9 0 -21 15 l-20 26 -190 0 c-188 0 -190 0 -214 -25 -31 -30
-33 -20 -3 12 21 22 26 23 215 23 180 0 194 -1 213 -20z m637 -2 c17 -18 22
-39 24 -93 3 -62 0 -75 -24 -112 -24 -37 -57 -58 -57 -35 -1 17 -18 32 -31 27
-10 -4 -13 -17 -11 -44 l4 -39 53 0 c47 1 55 3 58 22 2 11 5 -16 6 -61 1 -78
0 -83 -26 -103 -26 -20 -36 -21 -215 -18 -232 4 -225 0 -230 135 -3 99 7 128
36 103 13 -10 17 -8 26 15 6 15 14 33 17 39 5 8 3 8 -8 1 -8 -6 -25 -10 -39
-10 -23 0 -25 4 -31 60 -6 65 3 103 28 123 12 8 71 12 208 12 186 0 192 -1
212 -22z m640 0 c23 -21 23 -26 23 -215 0 -260 17 -243 -235 -243 l-187 0 -29
29 -29 29 0 187 c0 251 -17 235 241 235 184 0 194 -1 216 -22z m638 -3 c20
-19 25 -34 25 -77 0 -84 -6 -95 -61 -113 -38 -13 -49 -21 -49 -38 0 -11 -7
-29 -16 -39 -15 -16 -15 -18 -1 -24 9 -3 39 -4 67 -2 l50 3 2 -35 c3 -67 -1
-85 -27 -107 -25 -22 -34 -23 -204 -23 -164 0 -180 2 -204 20 -29 23 -42 67
-33 113 l6 32 65 -2 c36 -1 65 1 65 5 0 4 -7 18 -16 30 -8 12 -13 26 -9 32 6
10 -45 40 -69 40 -32 0 -46 30 -46 96 0 56 4 68 25 89 24 25 26 25 215 25 189
0 191 0 215 -25z m-1933 -22 c12 -14 17 -57 22 -190 6 -168 6 -172 -16 -198
l-23 -26 -179 0 c-154 0 -181 2 -197 17 -17 16 -19 34 -19 200 0 178 1 183 22
198 18 13 55 16 199 16 155 0 178 -2 191 -17z m325 -501 c-18 -4 -17 -5 2 -19
25 -17 19 -33 -12 -32 -21 0 -21 1 -2 9 18 7 19 8 3 15 -10 4 -18 13 -18 20 0
15 21 25 35 16 6 -3 2 -7 -8 -9z m-687 -3 c0 -8 5 -8 15 1 19 16 19 3 0 -30
-13 -23 -14 -23 -15 -4 0 11 -5 25 -12 32 -9 9 -9 12 0 12 7 0 12 -5 12 -11z
m182 -14 c-2 -14 -8 -25 -12 -25 -4 0 -10 11 -12 25 -4 19 -1 25 12 25 13 0
16 -6 12 -25z m82 -9 c2 -14 -1 -26 -5 -26 -5 0 -9 14 -9 32 0 36 10 32 14 -6z
m471 -1 c0 -14 -3 -25 -7 -25 -4 0 -8 14 -8 32 0 36 13 30 15 -7z m165 -14 c0
-4 -9 -7 -20 -7 -15 0 -20 7 -20 30 l0 29 20 -23 c11 -13 20 -26 20 -29z m449
37 c0 -7 -4 -22 -9 -33 -7 -17 -9 -15 -9 13 -1 17 4 32 9 32 6 0 10 -6 9 -12z
m44 -8 c-3 -11 -9 -17 -14 -14 -14 8 -10 34 5 34 9 0 12 -7 9 -20z m537 -27
c0 -7 -4 -13 -10 -13 -5 0 -10 3 -10 8 0 4 -3 18 -6 32 -6 24 -6 25 9 5 9 -11
17 -26 17 -32z m20 32 c0 -8 -4 -15 -10 -15 -5 0 -10 7 -10 15 0 8 5 15 10 15
6 0 10 -7 10 -15z m23 -17 c-5 -26 -23 -40 -23 -18 0 10 23 51 26 47 1 -1 0
-14 -3 -29z m136 0 c0 -28 -2 -30 -9 -13 -12 28 -12 45 0 45 6 0 10 -15 9 -32z
m47 18 c13 -10 23 -11 31 -4 13 10 33 3 33 -12 0 -5 -7 -7 -15 -4 -8 4 -15 1
-15 -5 0 -6 5 -11 12 -11 6 0 8 -3 5 -6 -4 -4 -13 -1 -22 6 -8 7 -15 9 -15 4
0 -5 -6 0 -12 11 -11 19 -11 19 -18 0 -6 -17 -8 -16 -12 8 -6 31 0 33 28 13z
m-2079 -12 c3 -8 1 -20 -5 -26 -7 -7 -10 -6 -9 3 1 8 -2 14 -8 14 -5 0 -8 -7
-7 -15 3 -12 1 -12 -9 -3 -10 10 -10 15 1 28 16 19 29 19 37 -1z m273 -5 c0
-6 -5 -7 -11 -3 -6 3 -15 0 -20 -7 -7 -11 -9 -11 -9 3 0 17 19 29 33 21 4 -2
7 -9 7 -14z m435 11 c4 -6 1 -9 -6 -8 -6 2 -14 -3 -17 -11 -3 -10 0 -12 12 -8
9 4 16 2 16 -3 0 -6 -7 -10 -15 -10 -21 0 -31 30 -14 41 18 11 17 11 24 -1z
m61 -2 c5 -8 2 -9 -9 -5 -13 5 -17 1 -17 -16 0 -17 -2 -19 -10 -7 -5 9 -5 19
2 27 13 16 25 17 34 1z m101 -18 c3 -19 2 -19 -17 -3 -14 12 -16 19 -8 24 15
10 21 4 25 -21z m503 -3 c0 -18 -2 -19 -10 -7 -13 20 -13 43 0 35 6 -3 10 -16
10 -28z m60 8 c0 -25 -15 -24 -16 1 -1 13 2 21 7 18 5 -3 9 -11 9 -19z m36 10
c-3 -8 -1 -15 5 -15 6 0 7 -5 4 -11 -5 -6 -12 -4 -20 8 -14 19 -11 33 7 33 5
0 8 -7 4 -15z m475 -2 c12 -15 12 -16 -3 -10 -13 4 -18 1 -18 -11 0 -14 -2
-15 -10 -2 -5 9 -5 19 2 27 13 16 13 16 29 -4z m57 -11 c2 -12 -1 -22 -7 -22
-6 0 -11 9 -11 21 0 13 -4 18 -12 13 -7 -4 -8 -3 -4 5 11 18 31 8 34 -17z
m-1968 -15 c0 -5 -4 -5 -10 -2 -5 3 -10 14 -10 23 0 15 2 15 10 2 5 -8 10 -19
10 -23z m30 19 c0 -8 -4 -17 -9 -21 -6 -3 -9 4 -8 15 1 23 17 28 17 6z m67
-18 c-3 -7 -5 -2 -5 12 0 14 2 19 5 13 2 -7 2 -19 0 -25z m33 12 c0 -11 -4
-20 -9 -20 -5 0 -7 9 -4 20 3 11 7 20 9 20 2 0 4 -9 4 -20z m60 6 c0 -8 -4
-17 -8 -20 -4 -2 -8 4 -8 15 0 10 4 19 8 19 4 0 8 -6 8 -14z m1180 -10 c0 -14
-4 -28 -10 -31 -6 -4 -10 7 -10 24 0 17 5 31 10 31 6 0 10 -11 10 -24z m770 4
c-6 -11 -13 -20 -15 -20 -3 0 -5 9 -5 20 0 11 7 20 15 20 13 0 14 -4 5 -20z
m-880 -6 c0 -8 -4 -12 -10 -9 -5 3 -10 10 -10 16 0 5 5 9 10 9 6 0 10 -7 10
-16z m-376 -188 c54 -22 60 -52 52 -248 -3 -93 -11 -178 -16 -189 -6 -10 -25
-22 -43 -27 -44 -11 -362 -5 -386 8 -31 16 -41 73 -41 237 0 169 7 198 55 219
43 19 334 19 379 0z m1281 -31 l40 -36 -2 -182 -2 -182 -26 -22 c-25 -22 -34
-23 -183 -22 -86 1 -168 4 -182 9 l-25 7 27 8 c15 4 31 4 37 1 5 -4 12 -2 15
3 4 5 -9 19 -28 30 -35 22 -86 28 -86 10 0 -5 -4 -7 -10 -4 -6 4 -10 76 -10
184 0 161 2 181 19 202 24 30 91 39 256 34 l121 -4 39 -36z m-2262 28 c-7 -2
-19 -2 -25 0 -7 3 -2 5 12 5 14 0 19 -2 13 -5z m-56 -21 c-10 -10 -18 -27 -18
-38 -1 -18 -2 -18 -6 -1 -4 16 21 57 35 57 3 0 -2 -8 -11 -18z m442 -18 c6
-14 10 -51 10 -82 l-2 -57 -7 67 c-4 44 -13 75 -25 88 -15 16 -15 19 -3 15 8
-3 20 -17 27 -31z m-154 -23 c50 -22 91 -69 105 -119 12 -46 12 -58 0 -104
-24 -85 -108 -143 -196 -136 -103 9 -174 85 -174 188 0 141 137 230 265 171z
m1435 -221 c0 -136 -1 -142 -25 -165 -24 -25 -26 -25 -210 -25 l-187 0 -29 29
-29 29 0 136 0 136 240 0 240 0 0 -140z m250 -140 c12 -8 12 -10 -5 -10 -11 0
-27 5 -35 10 -12 8 -12 10 5 10 11 0 27 -5 35 -10z m-1834 -112 c5 -7 2 -9 -8
-5 -19 7 -38 -11 -31 -30 3 -9 13 -11 27 -7 16 5 18 4 9 -6 -14 -15 -41 -7
-49 15 -12 30 35 61 52 33z m181 -26 c18 -18 17 -38 -1 -23 -11 9 -15 9 -19
-1 -3 -7 -5 5 -5 27 0 22 2 33 5 25 4 -8 12 -21 20 -28z m347 29 c3 -5 -2 -8
-12 -7 -11 1 -17 -6 -17 -19 0 -13 6 -20 18 -19 9 1 17 -3 17 -8 0 -17 -45 -3
-48 15 -6 30 28 61 42 38z m739 -15 c3 11 5 4 6 -16 l1 -35 -19 24 -19 25 -5
-25 c-3 -16 -5 -11 -5 16 l-2 40 19 -24 c18 -23 19 -23 24 -5z m583 12 c5 -8
2 -9 -9 -5 -22 8 -22 -2 0 -18 9 -7 13 -17 9 -23 -9 -14 -33 -16 -40 -3 -4 5
4 7 16 4 l23 -5 -24 20 c-13 11 -21 24 -17 31 9 14 33 14 42 -1z m-1818 -23
c-1 -14 -6 -25 -10 -25 -4 0 -8 11 -8 25 0 14 4 25 10 25 5 0 9 -11 8 -25z
m579 -22 c-3 -10 -5 -2 -5 17 0 19 2 27 5 18 2 -10 2 -26 0 -35z m143 22 c0
-14 -3 -25 -7 -25 -5 0 -8 11 -8 25 0 14 3 25 8 25 4 0 7 -11 7 -25z m79 -7
c-1 -31 -1 -31 -8 -8 -5 14 -6 28 -4 33 9 15 13 6 12 -25z m530 0 c0 -28 -2
-30 -9 -13 -12 28 -12 45 0 45 6 0 10 -15 9 -32z m576 -3 c0 -14 -3 -25 -7
-25 -4 0 -8 14 -8 32 0 36 13 30 15 -7z m33 0 c0 -13 -4 -22 -9 -19 -5 3 -9
16 -9 30 0 14 4 23 9 20 5 -3 9 -17 9 -31z m-1892 14 c4 -8 9 -8 17 0 6 6 18
11 27 11 11 -1 11 -3 -4 -12 -19 -11 -19 -11 -1 -24 21 -16 8 -19 -15 -4 -9 5
-19 5 -28 -2 -17 -14 -37 4 -29 26 7 18 23 21 33 5z m512 -20 c2 -18 1 -21 -7
-9 -5 8 -8 17 -5 21 2 4 -1 10 -6 12 -6 3 -5 4 2 3 7 -1 14 -13 16 -27z m65
24 c-7 -2 -13 -11 -13 -18 0 -7 6 -16 13 -18 9 -4 9 -6 0 -6 -6 -1 -15 4 -18
9 -9 15 2 40 17 39 10 0 10 -2 1 -6z m144 -24 c1 -19 1 -20 -4 -4 -3 11 -10
24 -17 28 -7 6 -6 7 4 4 8 -2 16 -14 17 -28z m90 15 c8 -21 -13 -42 -28 -27
-13 13 -5 43 11 43 6 0 13 -7 17 -16z m36 -4 c-7 -28 -23 -36 -23 -11 0 10 6
22 13 24 6 3 13 6 14 6 0 1 -1 -8 -4 -19z m404 4 c9 -23 -13 -40 -32 -24 -12
10 -13 16 -4 26 15 18 28 18 36 -2z m89 4 c5 -8 2 -9 -9 -5 -11 4 -17 1 -17
-8 0 -8 5 -15 12 -15 6 0 8 -3 5 -6 -4 -4 -13 -1 -22 6 -12 10 -13 16 -4 26
14 17 26 18 35 2z m36 3 c-11 -7 -10 -9 3 -15 17 -6 12 -26 -6 -26 -6 0 -8 4
-4 9 3 5 1 12 -5 16 -13 8 -3 25 13 25 8 0 8 -3 -1 -9z m446 -12 c3 -11 1 -11
-8 1 -10 12 -11 11 -7 -7 3 -13 1 -23 -3 -23 -14 0 -22 20 -16 36 7 18 28 14
34 -7z m149 -4 c1 -16 1 -16 -3 -2 -3 9 -9 17 -14 17 -5 0 -11 -8 -13 -17 -3
-13 -5 -12 -6 5 -1 30 33 27 36 -3z m61 1 c2 -10 -1 -23 -7 -29 -8 -8 -11 -4
-11 16 0 15 -4 27 -10 27 -5 0 -10 -7 -10 -17 0 -9 -3 -14 -6 -10 -4 3 -4 13
0 22 8 21 40 15 44 -9z m34 15 c-11 -7 -10 -9 3 -15 17 -6 12 -26 -6 -26 -6 0
-8 4 -4 9 3 5 1 12 -5 16 -13 8 -3 25 13 25 8 0 8 -3 -1 -9z m-1442 -31 c5 0
11 8 13 18 3 12 5 11 6 -6 1 -17 -4 -23 -16 -20 -10 2 -18 10 -19 18 0 9 1 10
3 3 3 -7 8 -13 13 -13z m1287 8 c-3 -8 -6 -5 -6 6 -1 11 2 17 5 13 3 -3 4 -12
1 -19z m-1212 -8 c3 -5 1 -10 -4 -10 -6 0 -11 5 -11 10 0 6 2 10 4 10 3 0 8
-4 11 -10z m-745 -904 c-7 -7 -13 -7 -20 0 -6 6 -3 10 10 10 13 0 16 -4 10
-10z m127 -6 c4 -13 3 -13 -6 0 -9 12 -13 12 -19 2 -7 -11 -11 -10 -20 0 -9
11 -6 14 15 13 15 0 28 -7 30 -15z m46 3 c-3 -7 -9 -13 -13 -13 -4 0 -10 6
-13 13 -3 7 3 13 13 13 10 0 16 -6 13 -13z m57 2 c7 -9 8 -15 2 -15 -5 0 -12
7 -16 15 -3 8 -4 15 -2 15 2 0 9 -7 16 -15z m113 -2 c-3 -7 -9 -13 -13 -13 -5
0 -11 6 -13 13 -3 6 -4 -1 -3 -18 2 -31 31 -44 31 -14 1 42 14 44 238 44 174
0 218 -3 233 -15 16 -13 17 -13 12 0 -8 23 470 23 497 0 22 -19 95 -21 88 -2
-3 6 -9 12 -14 12 -5 0 -9 -6 -9 -12 0 -9 -4 -8 -11 2 -8 11 -12 12 -16 3 -6
-17 -20 -17 -26 0 -4 10 13 13 71 12 52 0 76 -4 78 -13 1 -7 0 -8 -3 -2 -7 14
-20 12 -26 -4 -4 -10 2 -12 23 -10 18 2 36 -3 46 -14 16 -15 17 -16 12 0 -10
25 18 42 68 43 46 1 69 -13 69 -44 0 -21 43 -21 72 0 18 13 52 15 205 14 113
-1 191 -6 203 -12 12 -6 30 -11 40 -10 13 1 20 -4 20 -15 0 -29 20 -41 36 -22
12 16 12 17 -1 12 -12 -4 -16 1 -15 20 0 14 6 26 13 28 7 1 8 0 2 -3 -19 -9
-10 -23 13 -20 19 2 22 -3 23 -33 2 -54 3 -60 14 -60 5 0 9 10 7 23 -1 14 3
22 13 22 9 0 14 -8 13 -20 -1 -11 4 -23 10 -27 9 -6 9 -8 0 -8 -12 0 -12 -44
0 -56 3 -4 -1 -13 -9 -21 -8 -9 -18 -12 -22 -9 -3 4 0 11 8 16 8 5 11 12 7 17
-5 4 -12 1 -17 -7 -5 -8 -12 -11 -17 -7 -4 5 -2 11 4 15 8 5 7 11 -2 19 -11
10 -14 10 -18 0 -2 -7 -8 -8 -13 -4 -5 4 -2 12 6 17 8 5 11 12 7 17 -5 4 -12
1 -17 -7 -5 -8 -12 -11 -17 -7 -4 5 -2 11 4 15 8 5 7 11 -2 19 -11 10 -14 10
-18 0 -2 -7 -8 -8 -13 -4 -5 4 -2 12 6 17 8 5 11 12 8 16 -4 3 -14 -1 -23 -9
-10 -10 -12 -18 -5 -22 8 -5 8 -11 0 -20 -8 -10 -7 -14 2 -18 10 -4 10 -7 -1
-15 -11 -8 -11 -11 0 -16 11 -5 11 -7 2 -12 -17 -7 -16 -21 0 -27 10 -4 13 3
12 22 -2 36 16 53 35 33 12 -14 12 -15 -1 -10 -11 4 -15 -1 -14 -21 0 -21 5
-26 26 -26 20 -1 25 3 21 15 -4 12 -1 12 15 -3 12 -11 27 -15 39 -11 15 6 17
4 7 -6 -10 -11 -10 -17 0 -28 10 -13 8 -14 -10 -8 -13 4 -24 2 -29 -5 -4 -8
-3 -9 5 -5 19 12 44 -14 30 -30 -9 -11 -9 -14 0 -14 8 0 11 -51 9 -185 l-3
-185 -1352 0 -1353 0 0 166 c0 147 2 168 17 180 17 13 17 15 -1 29 -19 14 -19
16 -2 34 10 11 15 24 12 30 -4 5 -2 12 4 16 5 3 10 0 10 -7 0 -10 2 -10 9 1 5
8 11 9 15 3 3 -5 -1 -15 -9 -22 -8 -7 -15 -18 -15 -24 0 -6 4 -5 9 3 5 7 14
11 20 7 7 -5 9 -1 5 8 -8 21 6 20 22 -1 10 -14 15 -15 24 -6 14 13 5 34 -13
32 -23 -3 -37 1 -37 11 0 15 57 5 76 -15 14 -13 15 -18 4 -25 -11 -7 -10 -11
3 -25 22 -21 21 -31 0 -44 -10 -6 -12 -11 -5 -11 6 0 12 -7 12 -15 0 -12 14
-15 63 -16 34 -1 67 0 72 1 33 7 75 4 109 -7 50 -17 101 -17 115 1 8 10 21 12
46 6 20 -4 35 -4 35 1 0 17 17 9 27 -13 9 -20 10 -19 8 12 -2 19 -4 35 -5 35
-1 0 -4 13 -6 30 -2 22 -1 26 6 15 9 -13 10 -13 10 0 0 9 -6 22 -12 29 -11 11
-10 12 1 6 9 -5 12 -3 9 6 -3 8 2 22 10 32 14 16 14 19 -1 34 -11 11 -17 13
-17 5 0 -7 5 -12 10 -12 6 0 10 -5 10 -11 0 -5 -4 -7 -10 -4 -5 3 -10 1 -10
-4 0 -6 -3 -10 -7 -9 -5 1 -35 -4 -68 -11 -65 -15 -159 -22 -188 -14 -12 3
-16 10 -12 21 5 14 4 14 -6 5 -10 -10 -7 -19 16 -43 37 -38 62 -46 84 -25 17
15 21 15 55 -1 44 -22 49 -55 11 -80 -55 -36 -156 6 -216 89 -17 23 -32 41
-34 40 -3 0 -25 5 -50 12 -25 8 -53 12 -63 9 -14 -5 -14 -4 -3 4 13 9 11 14
-10 32 -13 12 -17 20 -8 17 12 -4 15 4 14 42 -1 25 2 54 7 64 12 24 1 40 -16
24 -10 -8 -11 -14 -3 -19 6 -4 8 -10 4 -15 -5 -4 -12 -1 -17 7 -5 8 -12 11
-17 7 -4 -5 -1 -12 7 -18 13 -8 13 -10 0 -20 -11 -8 -12 -12 -3 -16 10 -3 10
-8 -1 -19 -8 -7 -16 -19 -19 -26 -2 -7 -8 -9 -13 -5 -5 4 -2 13 6 18 12 8 12
12 2 16 -7 2 -18 10 -25 17 -10 11 -15 11 -24 0 -10 -10 -10 -14 0 -17 7 -2 9
-8 5 -12 -4 -4 -14 0 -22 8 -12 12 -13 17 -3 20 9 4 8 8 -3 16 -13 10 -13 12
0 22 12 9 13 12 1 16 -11 5 -11 7 0 14 11 7 12 11 1 17 -8 5 2 8 26 8 27 -1
38 -5 35 -13 -3 -7 0 -13 6 -13 6 0 11 6 12 13 0 10 2 10 6 0 2 -7 9 -13 15
-13 6 0 8 7 5 14 -4 10 -1 13 9 9 8 -3 14 1 14 8 0 12 2 12 9 1 7 -11 14 -11
42 0 51 21 396 19 409 -2 7 -10 10 -11 10 -2 0 6 5 12 11 12 6 0 9 -7 6 -14
-4 -10 -1 -13 9 -9 7 3 14 0 14 -6 0 -6 -6 -11 -12 -11 -9 0 -10 -2 -2 -8 6
-4 10 -22 9 -40 -1 -17 1 -29 4 -26 13 13 8 90 -8 108 -15 18 -15 19 1 13 12
-4 15 -2 11 9 -6 15 -23 19 -23 5 0 -5 -6 -11 -13 -14 -7 -3 -13 2 -13 12 0
13 11 16 52 16 37 0 50 -4 47 -12z m1190 0 c-3 -7 -9 -13 -13 -13 -4 0 -10 6
-13 13 -3 7 3 13 13 13 10 0 16 -6 13 -13z m170 0 c-3 -7 -9 -13 -13 -13 -4 0
-10 6 -13 13 -3 7 3 13 13 13 10 0 16 -6 13 -13z m39 -23 c-14 -13 -23 -16
-28 -9 -4 8 -9 7 -15 -2 -4 -7 -11 -10 -15 -6 -4 3 4 15 17 26 13 11 26 15 27
10 2 -5 8 -9 14 -9 6 0 7 8 3 18 -5 13 -4 15 6 5 10 -10 9 -17 -9 -33z m61 25
c-3 -9 -8 -14 -10 -11 -3 3 -2 9 2 15 9 16 15 13 8 -4z m67 1 c-7 -7 -13 -7
-20 0 -6 6 -3 10 10 10 13 0 16 -4 10 -10z m-2037 -9 c3 -7 -3 -13 -13 -13
-10 0 -16 6 -13 13 3 7 9 13 13 13 4 0 10 -6 13 -13z m507 -27 c0 -5 -4 -10
-10 -10 -5 0 -10 5 -10 10 0 6 5 10 10 10 6 0 10 -4 10 -10z m2000 -6 c0 0 -8
-8 -18 -17 -16 -15 -18 -15 -18 1 0 10 8 18 18 18 10 0 18 -1 18 -2z m-2560
-84 c0 -5 -4 -10 -10 -10 -5 0 -10 5 -10 10 0 6 5 10 10 10 6 0 10 -4 10 -10z
m-70 -31 c0 -5 -4 -9 -10 -9 -16 0 -11 -17 7 -24 11 -5 24 2 40 20 13 15 26
24 30 21 3 -4 -6 -17 -20 -30 -15 -12 -27 -27 -27 -32 0 -6 4 -4 9 4 8 12 12
12 26 -3 10 -9 14 -20 11 -24 -4 -3 -12 0 -17 8 -9 12 -11 13 -16 1 -4 -11 -7
-11 -13 -1 -6 10 -12 10 -25 -3 -9 -10 -21 -14 -27 -11 -6 4 -14 0 -19 -7 -4
-7 -11 -10 -15 -7 -3 4 2 15 12 25 12 13 19 14 22 6 3 -10 8 -9 19 3 8 8 12
18 9 22 -4 3 -11 1 -15 -6 -6 -10 -10 -10 -20 1 -9 11 -8 17 4 27 9 7 14 19
11 26 -3 8 0 11 10 7 7 -3 14 -9 14 -14z m2524 6 c-7 -16 -24 -21 -24 -6 0 8
7 13 27 20 1 1 0 -6 -3 -14z m-2574 -25 c0 -5 -4 -10 -10 -10 -5 0 -10 5 -10
10 0 6 5 10 10 10 6 0 10 -4 10 -10z m2630 -13 c0 -11 -41 -49 -47 -44 -3 4 4
16 17 27 22 19 30 24 30 17z m-2630 -17 c0 -5 -4 -10 -10 -10 -5 0 -10 5 -10
10 0 6 5 10 10 10 6 0 10 -4 10 -10z m0 -70 c0 -5 -4 -10 -10 -10 -5 0 -10 5
-10 10 0 6 5 10 10 10 6 0 10 -4 10 -10z m100 0 c0 -5 -4 -10 -10 -10 -5 0
-10 5 -10 10 0 6 5 10 10 10 6 0 10 -4 10 -10z m-100 -70 c0 -5 -4 -10 -10
-10 -5 0 -10 5 -10 10 0 6 5 10 10 10 6 0 10 -4 10 -10z m1418 -742 c7 -7 12
-42 12 -85 0 -66 -2 -74 -25 -89 -35 -23 -142 -16 -161 11 -16 22 -19 127 -4
156 9 16 22 19 88 19 47 0 83 -5 90 -12z m101 -304 c-7 -8 -36 -27 -63 -42
-42 -22 -64 -26 -126 -27 -76 0 -122 16 -175 60 -20 16 -20 16 0 10 10 -3 54
-11 97 -16 81 -11 221 0 256 21 24 13 26 12 11 -6z"/>
<path d="M1430 5220 c0 -5 5 -10 10 -10 6 0 10 5 10 10 0 6 -4 10 -10 10 -5 0
-10 -4 -10 -10z"/>
<path d="M620 5190 c0 -5 5 -10 11 -10 5 0 7 5 4 10 -3 6 -8 10 -11 10 -2 0
-4 -4 -4 -10z"/>
<path d="M554 4739 c-4 -7 3 -19 16 -29 13 -10 20 -22 16 -29 -4 -6 -2 -11 3
-11 20 0 11 39 -9 45 -27 8 -25 23 3 28 22 4 22 4 0 6 -12 0 -25 -4 -29 -10z"/>
<path d="M630 4736 c0 -9 5 -16 10 -16 6 0 10 4 10 9 0 6 -4 13 -10 16 -5 3
-10 -1 -10 -9z"/>
<path d="M690 4738 c0 -9 5 -20 10 -23 13 -8 13 5 0 25 -8 13 -10 13 -10 -2z"/>
<path d="M736 4735 c-4 -10 3 -20 20 -27 16 -8 23 -17 19 -27 -5 -13 -4 -14 7
-3 11 12 9 17 -9 29 -28 19 -29 30 -5 36 13 4 12 5 -4 6 -12 0 -25 -6 -28 -14z"/>
<path d="M858 4723 c-10 -2 -18 -12 -18 -21 0 -29 -38 -80 -72 -98 -18 -10
-53 -23 -78 -30 l-45 -14 50 7 c28 4 83 6 123 5 l72 -1 0 79 c0 44 -3 79 -7
79 -5 -1 -16 -3 -25 -6z"/>
<path d="M660 4684 c0 -8 5 -12 10 -9 6 3 10 10 10 16 0 5 -4 9 -10 9 -5 0
-10 -7 -10 -16z"/>
<path d="M598 4561 c-52 -24 -62 -37 -13 -17 22 10 44 21 50 27 12 12 7 11
-37 -10z"/>
<path d="M1896 4771 c-16 -17 -21 -46 -17 -92 3 -43 108 -47 131 -4 13 24 6
80 -12 103 -16 19 -82 15 -102 -7z m88 -34 c8 -12 7 -20 -4 -29 -8 -7 -11 -9
-7 -4 4 5 0 20 -9 34 -11 17 -12 23 -3 20 7 -2 17 -12 23 -21z"/>
<path d="M1801 4594 c-12 -15 -21 -31 -21 -35 0 -12 27 -11 35 1 3 6 17 10 30
10 12 0 26 7 29 16 10 26 -2 29 -25 8 -21 -19 -22 -19 -15 4 10 30 -8 28 -33
-4z"/>
<path d="M2016 4552 c-7 -12 30 -42 62 -48 21 -4 33 1 57 26 l30 32 -38 -20
c-38 -20 -39 -20 -72 -1 -18 11 -36 16 -39 11z"/>
<path d="M2515 4845 c-65 -36 -95 -83 -95 -153 0 -78 78 -152 160 -152 152 0
215 194 93 287 -43 33 -115 41 -158 18z m36 -116 c-33 -31 -46 -17 -15 16 19
20 29 25 32 17 2 -8 -5 -22 -17 -33z m49 -24 c6 -8 15 -14 18 -13 4 0 13 0 20
-1 18 -1 -2 -37 -28 -51 -24 -13 -47 -3 -32 12 7 7 6 15 -4 25 -8 8 -14 21
-14 29 0 18 24 18 40 -1z"/>
<path d="M1242 4737 c-33 -35 -30 -99 5 -127 21 -16 36 -20 59 -15 29 5 32 3
27 -14 -9 -35 -31 -46 -51 -27 -20 17 -62 22 -62 7 0 -5 8 -19 19 -32 23 -29
81 -31 111 -4 45 40 50 157 9 209 -27 35 -86 36 -117 3z m88 -37 c20 -38 -8
-78 -45 -64 -36 14 -23 84 15 84 11 0 24 -9 30 -20z"/>
<path d="M1810 4380 c0 -5 5 -10 10 -10 6 0 10 5 10 10 0 6 -4 10 -10 10 -5 0
-10 -4 -10 -10z"/>
<path d="M1920 4360 c0 -5 5 -10 10 -10 6 0 10 5 10 10 0 6 -4 10 -10 10 -5 0
-10 -4 -10 -10z"/>
<path d="M2010 4360 c0 -5 5 -10 10 -10 6 0 10 5 10 10 0 6 -4 10 -10 10 -5 0
-10 -4 -10 -10z"/>
<path d="M1266 3981 c-31 -4 -51 -11 -54 -21 -4 -12 -2 -13 9 -2 21 20 36 14
48 -20 6 -17 13 -29 16 -27 5 6 37 80 33 77 -2 0 -25 -4 -52 -7z"/>
<path d="M1425 3980 c-3 -6 1 -7 9 -4 18 7 21 14 7 14 -6 0 -13 -4 -16 -10z"/>
<path d="M1495 3979 c-4 -6 -14 -8 -22 -5 -11 5 -13 2 -9 -10 3 -8 6 -20 6
-25 0 -21 19 -7 29 21 10 30 8 39 -4 19z"/>
<path d="M1155 3926 c-21 -21 -34 -26 -52 -21 -22 5 -24 3 -21 -22 3 -26 6
-28 55 -29 l51 -1 4 39 c5 56 -5 66 -37 34z"/>
<path d="M1217 3923 c-4 -3 -7 -20 -7 -38 l0 -31 93 0 92 1 3 38 3 37 -40 0
c-23 0 -41 -4 -41 -9 0 -12 -29 -41 -41 -41 -5 0 -15 11 -21 25 -11 24 -28 32
-41 18z"/>
<path d="M1915 4102 c-3 -8 -5 -16 -5 -18 0 -2 50 -4 110 -4 102 0 129 7 99
26 -7 4 -54 7 -105 8 -70 1 -95 -2 -99 -12z"/>
<path d="M1910 4045 c0 -31 38 -72 74 -81 64 -16 146 29 146 81 0 20 -5 25
-25 25 -22 0 -24 -3 -19 -30 5 -22 2 -31 -11 -36 -10 -4 -21 -1 -26 7 -6 10
-9 10 -9 2 0 -7 -9 -13 -21 -13 -18 0 -21 5 -17 35 3 23 0 35 -8 35 -8 0 -11
-13 -10 -35 3 -28 0 -35 -15 -35 -22 0 -24 10 -6 29 10 11 9 12 -2 6 -10 -6
-12 -2 -6 14 5 18 2 21 -19 21 -21 0 -26 -5 -26 -25z"/>
<path d="M2030 4061 c0 -17 18 -21 24 -6 3 9 0 15 -9 15 -8 0 -15 -4 -15 -9z"/>
<path d="M1787 3914 c-13 -13 -7 -41 11 -58 18 -15 20 -15 36 3 24 27 17 55
-14 59 -14 2 -29 0 -33 -4z m33 -14 c0 -5 -4 -10 -10 -10 -5 0 -10 5 -10 10 0
6 5 10 10 10 6 0 10 -4 10 -10z"/>
<path d="M1805 3770 c-3 -5 1 -10 9 -10 9 0 16 5 16 10 0 6 -4 10 -9 10 -6 0
-13 -4 -16 -10z"/>
<path d="M2615 3830 c-16 -7 -17 -9 -3 -9 9 -1 20 4 23 9 7 11 7 11 -20 0z"/>
<path d="M480 3918 c0 -55 3 -63 34 -94 19 -19 42 -34 53 -33 15 0 15 2 -4 9
-12 5 -29 20 -39 35 -20 30 -8 50 37 60 16 4 35 15 41 24 7 10 20 20 28 24 8
3 1 6 -15 6 -17 1 -54 7 -83 15 l-52 13 0 -59z"/>
<path d="M805 3965 c-22 -8 -55 -14 -72 -14 l-33 -1 20 -20 c11 -11 25 -20 30
-20 6 0 25 -10 44 -22 29 -19 32 -25 24 -44 -6 -12 -21 -28 -34 -35 -32 -16
-24 -23 10 -8 14 7 33 23 42 37 18 27 32 143 18 141 -5 -1 -27 -7 -49 -14z"/>
<path d="M490 3776 c-27 -33 18 -72 48 -42 13 13 14 20 6 34 -15 23 -38 26
-54 8z m40 -10 c0 -11 -19 -15 -25 -6 -3 5 1 10 9 10 9 0 16 -2 16 -4z"/>
<path d="M802 3781 c-8 -4 -12 -19 -10 -32 2 -18 9 -24 28 -24 21 0 25 5 25
30 0 31 -19 42 -43 26z m28 -21 c0 -5 -4 -10 -10 -10 -5 0 -10 5 -10 10 0 6 5
10 10 10 6 0 10 -4 10 -10z"/>
<path d="M1153 3340 c-52 -32 -54 -108 -4 -147 9 -7 35 -13 58 -13 52 0 83 33
83 90 0 30 -6 44 -31 64 -37 31 -63 33 -106 6z m97 -17 c13 -14 13 -14 -5 -5
-11 5 -37 8 -57 6 -43 -3 -49 2 -15 16 26 10 56 4 77 -17z m-40 -38 c0 -8 7
-15 15 -15 12 0 11 -4 -5 -20 -24 -24 -30 -25 -30 -5 0 8 -8 16 -17 16 -17 1
-17 2 0 6 9 2 17 11 17 19 0 8 5 14 10 14 6 0 10 -7 10 -15z"/>
<path d="M1349 3332 c-64 -57 -29 -152 57 -152 35 0 47 5 68 31 14 17 26 39
26 49 0 51 -49 100 -99 100 -12 0 -35 -13 -52 -28z m85 8 c14 -5 26 -15 26
-21 0 -7 -4 -8 -12 -2 -20 14 -68 16 -84 3 -7 -7 -14 -8 -14 -3 0 9 35 31 52
32 4 1 18 -3 32 -9z m2 -77 c-12 -12 -54 -14 -61 -3 -4 6 8 10 31 10 21 0 34
-3 30 -7z"/>
<path d="M1136 3124 c-83 -84 41 -207 131 -130 39 34 39 98 0 132 -39 34 -96
33 -131 -2z m107 4 c15 -11 9 -13 -37 -13 -42 0 -52 3 -44 13 6 6 23 12 37 12
15 0 35 -6 44 -12z m-45 -50 c9 -9 12 -9 12 0 0 7 4 12 8 12 5 0 9 -13 9 -30
0 -23 -3 -27 -13 -19 -8 7 -14 7 -19 -1 -3 -5 -11 -10 -17 -10 -7 0 -6 6 2 15
10 12 10 18 0 30 -15 18 1 20 18 3z"/>
<path d="M1345 3128 c-15 -14 -28 -38 -32 -60 -5 -32 -1 -41 25 -68 43 -43
100 -43 136 1 15 17 26 43 26 59 0 16 -11 42 -26 59 -33 39 -89 43 -129 9z
m98 0 c15 -11 9 -13 -38 -13 -47 0 -53 2 -38 13 9 6 26 12 38 12 12 0 29 -6
38 -12z m-23 -32 c0 -3 -4 -8 -10 -11 -5 -3 -10 -1 -10 4 0 6 5 11 10 11 6 0
10 -2 10 -4z m20 -36 c0 -5 -16 -10 -35 -10 -19 0 -35 5 -35 10 0 6 16 10 35
10 19 0 35 -4 35 -10z"/>
<path d="M2361 3204 c-2 -52 -1 -54 23 -54 31 0 32 6 9 33 -18 19 -17 20 10
15 22 -4 27 -2 23 9 -3 8 -6 16 -6 19 0 2 -13 10 -28 18 l-29 15 -2 -55z"/>
<path d="M2445 3240 c3 -5 8 -10 11 -10 2 0 4 5 4 10 0 6 -5 10 -11 10 -5 0
-7 -4 -4 -10z"/>
<path d="M2705 3239 c-11 -17 0 -20 21 -4 17 13 17 14 2 15 -9 0 -20 -5 -23
-11z"/>
<path d="M2743 3219 c-11 -27 -10 -29 14 -29 25 0 25 -1 10 -18 -23 -25 -21
-32 6 -32 22 -1 22 -1 -3 -14 -23 -13 -25 -12 -36 12 -13 32 -74 94 -88 89 -5
-2 -14 -16 -19 -31 -7 -20 -5 -31 7 -45 27 -30 19 -36 -49 -37 -59 -1 -69 1
-96 27 -39 36 -47 36 -62 0 -11 -26 -14 -28 -32 -15 -30 22 -35 17 -35 -37 0
-45 2 -50 15 -39 12 10 15 10 15 0 0 -10 3 -10 15 0 12 10 15 9 16 -6 0 -11 3
-14 6 -6 7 19 23 14 16 -5 -6 -16 -5 -16 10 -4 15 12 17 11 17 -2 0 -11 6 -14
15 -11 11 5 13 2 8 -12 -5 -13 -3 -16 10 -11 11 4 14 2 10 -9 -3 -7 0 -14 6
-14 6 0 8 -7 5 -15 -5 -12 5 -15 56 -15 51 0 61 3 56 15 -3 8 -1 15 5 15 6 0
9 7 6 14 -4 11 -1 13 10 9 12 -5 15 -2 10 10 -4 11 -2 14 9 10 7 -3 14 0 14 7
0 7 7 10 14 7 11 -4 13 -1 9 11 -6 15 -5 15 10 3 15 -12 17 -11 17 4 0 14 3
15 15 5 12 -10 15 -10 15 0 0 10 3 10 15 0 14 -12 16 -2 14 92 -1 102 -2 106
-23 106 -16 0 -26 -9 -33 -29z m-138 -149 c-3 -5 -12 -10 -18 -10 -7 0 -6 4 3
10 19 12 23 12 15 0z"/>
<path d="M2500 3222 c-43 -24 -45 -33 -13 -56 24 -18 27 -18 54 -2 16 10 33
15 38 11 11 -6 16 1 25 38 6 26 5 27 -31 27 -21 0 -54 -8 -73 -18z"/>
<path d="M2710 2977 l-35 -22 29 -3 c41 -5 69 4 84 28 11 18 10 20 -15 20 -16
0 -44 -10 -63 -23z m55 -7 c-3 -5 -16 -10 -28 -10 -18 0 -19 2 -7 10 20 13 43
13 35 0z"/>
<path d="M618 3203 c12 -17 22 -36 22 -41 0 -6 5 -14 11 -17 6 -4 9 -1 7 7 -2
7 2 14 7 15 6 1 9 -4 9 -12 -2 -14 4 -14 91 1 l40 8 -55 7 c-59 7 -91 19 -130
46 l-25 18 23 -32z"/>
<path d="M650 2825 c0 -8 5 -15 10 -15 6 0 10 7 10 15 0 8 -4 15 -10 15 -5 0
-10 -7 -10 -15z"/>
<path d="M1460 2825 c0 -8 5 -15 10 -15 6 0 10 7 10 15 0 8 -4 15 -10 15 -5 0
-10 -7 -10 -15z"/>
<path d="M1897 2834 c-8 -8 1 -24 14 -24 5 0 9 7 9 15 0 15 -12 20 -23 9z"/>
<path d="M999 1903 c0 -5 -2 -20 -4 -35 -4 -31 11 -46 28 -29 7 7 5 16 -8 31
-10 11 -13 20 -6 20 6 0 21 -11 33 -25 l21 -24 18 20 c10 11 15 27 12 35 -6
17 -20 18 -26 2 -4 -10 -8 -10 -15 1 -8 11 -11 11 -16 0 -5 -11 -7 -11 -12 -1
-6 13 -24 17 -25 5z m76 -29 c-17 -17 -22 -17 -28 -1 -3 7 5 13 19 13 20 2 21
0 9 -12z m-55 -24 c0 -5 -4 -10 -10 -10 -5 0 -10 5 -10 10 0 6 5 10 10 10 6 0
10 -4 10 -10z"/>
<path d="M1113 1900 c2 -8 10 -15 17 -15 7 0 15 7 17 15 4 13 3 13 -6 0 -10
-13 -12 -13 -22 0 -9 13 -10 13 -6 0z"/>
<path d="M1167 1897 c-3 -7 3 -13 13 -13 10 0 16 6 13 13 -3 7 -9 13 -13 13
-4 0 -10 -6 -13 -13z"/>
<path d="M1237 1897 c-3 -7 3 -13 13 -13 10 0 16 6 13 13 -3 7 -9 13 -13 13
-4 0 -10 -6 -13 -13z"/>
<path d="M1310 1901 c0 -6 3 -11 8 -12 4 0 17 -2 29 -3 14 -2 19 2 16 11 -6
16 -23 17 -23 2 0 -8 -5 -8 -15 1 -10 9 -15 9 -15 1z"/>
<path d="M1407 1897 c-3 -7 3 -13 13 -13 10 0 16 6 13 13 -3 7 -9 13 -13 13
-4 0 -10 -6 -13 -13z"/>
<path d="M1510 1906 c0 -2 7 -9 15 -16 13 -11 14 -10 9 4 -5 14 -24 23 -24 12z"/>
<path d="M1623 1900 c2 -8 10 -15 17 -15 7 0 15 7 17 15 4 13 3 13 -6 0 -10
-13 -12 -13 -22 0 -9 13 -10 13 -6 0z"/>
<path d="M1680 1906 c0 -2 7 -9 15 -16 13 -11 14 -10 9 4 -5 14 -24 23 -24 12z"/>
<path d="M1747 1897 c-3 -7 3 -13 13 -13 10 0 16 6 13 13 -3 7 -9 13 -13 13
-4 0 -10 -6 -13 -13z"/>
<path d="M1780 1906 c0 -2 7 -9 15 -16 13 -11 14 -10 9 4 -5 14 -24 23 -24 12z"/>
<path d="M1847 1897 c-3 -7 3 -13 13 -13 10 0 16 6 13 13 -3 7 -9 13 -13 13
-4 0 -10 -6 -13 -13z"/>
<path d="M1917 1897 c-3 -7 3 -13 13 -13 10 0 16 6 13 13 -3 7 -9 13 -13 13
-4 0 -10 -6 -13 -13z"/>
<path d="M2187 1896 c-4 -10 -1 -13 7 -10 8 3 28 -10 45 -28 24 -25 33 -30 42
-21 10 10 8 17 -7 34 -16 19 -17 22 -2 16 12 -4 15 -2 11 9 -6 17 -20 18 -26
2 -4 -10 -8 -10 -15 1 -8 11 -11 11 -16 0 -5 -11 -7 -11 -12 -1 -8 16 -21 15
-27 -2z m73 -26 c13 -11 20 -23 17 -27 -6 -5 -47 33 -47 44 0 7 8 2 30 -17z"/>
<path d="M1630 1856 c7 -7 13 -7 20 0 6 6 3 10 -10 10 -13 0 -16 -4 -10 -10z"/>
<path d="M2184 1859 c-10 -17 13 -36 27 -22 12 12 4 33 -11 33 -5 0 -12 -5
-16 -11z m26 -9 c0 -5 -4 -10 -10 -10 -5 0 -10 5 -10 10 0 6 5 10 10 10 6 0
10 -4 10 -10z"/>
<path d="M301 1846 c-8 -10 -8 -16 3 -25 11 -9 15 -9 19 1 2 7 8 9 13 5 5 -4
2 -12 -6 -17 -12 -7 -10 -13 9 -29 13 -12 25 -21 25 -21 1 0 1 17 1 39 0 25
-4 37 -11 34 -6 -2 -18 3 -27 11 -12 13 -17 13 -26 2z m59 -46 c0 -5 -4 -10
-10 -10 -5 0 -10 5 -10 10 0 6 5 10 10 10 6 0 10 -4 10 -10z"/>
<path d="M2817 1847 c-7 -17 9 -44 20 -34 4 5 1 12 -7 17 -10 7 -11 10 -2 10
6 0 12 5 12 10 0 15 -17 12 -23 -3z"/>
<path d="M2890 1850 c0 -5 5 -10 10 -10 6 0 10 5 10 10 0 6 -4 10 -10 10 -5 0
-10 -4 -10 -10z"/>
<path d="M2882 1815 c-10 -12 -5 -22 29 -56 22 -22 44 -38 47 -34 4 3 0 10 -8
16 -13 8 -13 10 0 20 12 9 12 10 -4 5 -13 -4 -26 1 -40 16 -13 14 -16 23 -8
26 13 4 17 22 5 22 -5 -1 -14 -7 -21 -15z"/>
<path d="M944 1809 c-10 -17 13 -36 27 -22 12 12 4 33 -11 33 -5 0 -12 -5 -16
-11z m26 -9 c0 -5 -4 -10 -10 -10 -5 0 -10 5 -10 10 0 6 5 10 10 10 6 0 10 -4
10 -10z"/>
<path d="M994 1799 c0 -10 6 -15 13 -12 15 6 18 -13 3 -20 -6 -3 -5 -4 2 -3
19 4 17 52 -2 52 -9 0 -16 -8 -16 -17z"/>
<path d="M1045 1809 c-11 -16 -1 -19 13 -3 7 8 8 14 3 14 -5 0 -13 -5 -16 -11z"/>
<path d="M1624 1809 c-10 -17 13 -36 27 -22 12 12 4 33 -11 33 -5 0 -12 -5
-16 -11z m26 -9 c0 -5 -4 -10 -10 -10 -5 0 -10 5 -10 10 0 6 5 10 10 10 6 0
10 -4 10 -10z"/>
<path d="M2187 1804 c7 -20 29 -23 29 -5 0 9 -8 17 -17 17 -9 0 -15 -6 -12
-12z"/>
<path d="M2234 1809 c-9 -16 7 -30 27 -24 20 7 27 -9 9 -18 -6 -3 -5 -4 2 -3
7 2 13 14 13 27 1 18 -5 24 -22 25 -13 1 -26 -2 -29 -7z m26 -9 c0 -5 -4 -10
-10 -10 -5 0 -10 5 -10 10 0 6 5 10 10 10 6 0 10 -4 10 -10z"/>
<path d="M2304 1809 c-3 -6 1 -18 10 -27 9 -9 16 -11 16 -5 0 6 -6 14 -12 16
-10 4 -9 8 2 16 9 7 10 11 3 11 -6 0 -15 -5 -19 -11z"/>
<path d="M290 1800 c0 -5 5 -10 10 -10 6 0 10 5 10 10 0 6 -4 10 -10 10 -5 0
-10 -4 -10 -10z"/>
<path d="M2940 1800 c0 -5 5 -10 10 -10 6 0 10 5 10 10 0 6 -4 10 -10 10 -5 0
-10 -4 -10 -10z"/>
<path d="M2028 1737 c-63 -52 -90 -67 -116 -67 -11 0 -22 -7 -26 -15 -3 -8 -1
-15 4 -15 6 0 10 5 10 11 0 6 12 9 28 7 35 -4 43 -41 13 -58 -28 -14 -27 -32
2 -28 12 2 22 8 22 13 0 10 44 85 49 85 2 0 17 -7 35 -16 22 -11 36 -13 43 -6
6 6 21 7 41 1 47 -13 55 -11 55 14 0 22 -4 24 -51 21 -27 -1 -53 -7 -56 -13
-7 -11 -51 -4 -51 8 0 4 6 15 13 26 34 49 49 75 44 75 -3 0 -29 -20 -59 -43z"/>
<path d="M946 1742 c-2 -4 4 -8 14 -8 10 0 16 4 14 8 -3 4 -9 8 -14 8 -5 0
-11 -4 -14 -8z"/>
<path d="M2235 1741 c-3 -7 0 -8 9 -5 17 7 22 -11 6 -19 -6 -3 -5 -4 2 -3 16
3 17 28 1 33 -6 2 -14 -1 -18 -6z"/>
<path d="M2300 1731 c0 -10 19 -25 25 -20 1 2 -3 10 -11 17 -8 7 -14 8 -14 3z"/>
<path d="M994 1689 c-10 -17 13 -36 27 -22 12 12 4 33 -11 33 -5 0 -12 -5 -16
-11z m26 -9 c0 -5 -4 -10 -10 -10 -5 0 -10 5 -10 10 0 6 5 10 10 10 6 0 10 -4
10 -10z"/>
<path d="M2205 1691 c4 -8 2 -17 -6 -22 -9 -6 -10 -9 -2 -9 19 0 27 21 13 33
-10 9 -11 9 -5 -2z"/>
<path d="M2254 1689 c-10 -17 13 -36 27 -22 12 12 4 33 -11 33 -5 0 -12 -5
-16 -11z m26 -9 c0 -5 -4 -10 -10 -10 -5 0 -10 5 -10 10 0 6 5 10 10 10 6 0
10 -4 10 -10z"/>
<path d="M1061 1617 l3 -72 43 0 43 0 -1 70 c0 39 -3 64 -6 58 -6 -17 -22 -16
-56 2 l-28 15 2 -73z"/>
<path d="M1725 1681 c-16 -3 -29 -10 -27 -14 1 -4 2 -11 2 -17 0 -5 9 -10 19
-10 11 0 23 5 26 10 3 6 14 10 24 10 30 0 25 -47 -5 -53 -15 -2 -24 1 -24 8 0
7 -11 15 -23 17 -22 4 -24 2 -22 -34 1 -28 9 -46 27 -63 26 -24 47 -23 27 1
-8 10 -3 12 25 11 27 -2 35 -6 31 -17 -3 -8 8 1 25 20 38 45 39 68 3 72 -17 2
-27 8 -25 16 2 12 -36 53 -48 50 -3 0 -18 -3 -35 -7z"/>
<path d="M2320 1681 c0 -6 4 -13 10 -16 6 -3 7 1 4 9 -7 18 -14 21 -14 7z"/>
<path d="M1498 1667 c-30 -8 -38 -15 -38 -34 0 -23 1 -23 30 -8 21 11 36 13
48 6 15 -8 17 -5 16 17 -1 31 -7 33 -56 19z"/>
<path d="M2830 1639 c11 -8 12 -12 3 -16 -7 -2 -13 -10 -13 -16 0 -6 7 -4 16
5 17 17 12 38 -9 38 -7 0 -6 -4 3 -11z"/>
<path d="M2875 1630 c-14 -16 -16 -23 -7 -32 10 -10 17 -7 33 9 12 11 18 26
15 32 -10 16 -21 14 -41 -9z m35 4 c0 -3 -7 -12 -15 -21 -20 -19 -32 -10 -14
11 14 15 29 21 29 10z"/>
<path d="M996 1622 c-2 -4 4 -8 14 -8 10 0 16 4 14 8 -3 4 -9 8 -14 8 -5 0
-11 -4 -14 -8z"/>
<path d="M2134 1621 c4 -7 1 -8 -8 -5 -12 5 -16 0 -16 -19 0 -14 -3 -33 -7
-43 -5 -14 -2 -16 14 -12 16 4 19 2 16 -13 -6 -22 12 -26 21 -4 3 8 11 15 18
15 9 0 13 15 13 43 0 39 -2 42 -29 45 -18 2 -26 0 -22 -7z"/>
<path d="M1460 1560 c0 -13 5 -18 15 -14 12 5 13 10 4 20 -15 19 -19 18 -19
-6z"/>
<path d="M2820 1576 c0 -2 7 -7 16 -10 8 -3 12 -2 9 4 -6 10 -25 14 -25 6z"/>
<path d="M1840 1520 c-53 -47 -47 -52 12 -10 23 17 48 28 56 25 8 -3 12 0 10
7 -9 25 -33 17 -78 -22z"/>
<path d="M1973 1553 c-22 -8 -14 -21 12 -19 14 0 25 4 25 7 0 10 -23 17 -37
12z"/>
<path d="M1178 1523 c7 -3 16 -2 19 1 4 3 -2 6 -13 5 -11 0 -14 -3 -6 -6z"/>
<path d="M1223 1523 c9 -2 23 -2 30 0 6 3 -1 5 -18 5 -16 0 -22 -2 -12 -5z"/>
<path d="M1303 1523 c9 -2 23 -2 30 0 6 3 -1 5 -18 5 -16 0 -22 -2 -12 -5z"/>
<path d="M430 1431 c0 -16 39 -49 63 -53 12 -2 97 -3 189 -3 138 1 170 4 192
18 14 10 26 24 26 33 0 13 -5 12 -26 -5 -25 -20 -40 -21 -209 -21 -169 0 -184
1 -209 21 -14 11 -26 16 -26 10z"/>
<path d="M1087 1410 l32 -33 173 0 c185 0 222 4 232 28 4 12 2 13 -13 6 -10
-6 -102 -12 -204 -13 -181 -3 -186 -2 -219 21 l-33 24 32 -33z"/>
<path d="M2155 1420 c-17 -19 -31 -20 -209 -20 -157 0 -196 3 -214 16 -13 9
-22 11 -22 4 0 -5 13 -18 29 -28 24 -15 54 -17 209 -16 188 1 200 3 223 46 13
24 7 23 -16 -2z"/>
<path d="M2353 1413 c30 -34 61 -39 244 -38 167 1 173 2 198 25 28 26 25 42
-3 17 -16 -14 -47 -17 -209 -18 -168 -1 -194 1 -219 17 l-29 18 18 -21z"/>
<path d="M521 1296 c3 -3 21 -6 40 -8 18 -1 37 -6 40 -11 5 -7 104 -12 179 -8
19 1 22 3 10 11 -9 5 -19 5 -27 -1 -7 -6 -18 -7 -25 -3 -12 7 -73 9 -93 3 -5
-2 -19 1 -30 7 -20 11 -104 19 -94 10z"/>
<path d="M1838 1293 c7 -3 16 -2 19 1 4 3 -2 6 -13 5 -11 0 -14 -3 -6 -6z"/>
<path d="M2523 1293 c21 -2 40 -10 43 -16 6 -17 81 -12 100 7 19 20 5 21 -22
2 -12 -9 -26 -11 -34 -6 -7 4 -19 6 -27 3 -7 -3 -13 0 -13 6 0 7 -17 10 -42 9
l-43 -1 38 -4z"/>
<path d="M2028 1273 c7 -3 16 -2 19 1 4 3 -2 6 -13 5 -11 0 -14 -3 -6 -6z"/>
<path d="M1544 807 c-3 -8 -4 -45 -2 -83 l3 -69 68 -3 c42 -2 74 2 83 9 18 14
19 130 2 147 -17 17 -147 16 -154 -1z"/>
<path d="M5746 6291 c-51 -30 -105 -90 -137 -153 -50 -97 -47 28 -50 -2898 -2
-2581 -1 -2738 16 -2790 41 -131 107 -219 200 -268 41 -22 64 -27 125 -27 63
0 84 5 132 29 32 16 66 38 75 49 18 19 17 20 -5 8 -25 -13 -42 -7 -42 14 0 8
25 37 55 66 l55 52 0 2875 0 2874 -38 37 c-21 20 -48 44 -60 53 -25 20 -30 58
-7 58 8 0 33 -16 55 -36 22 -20 40 -32 40 -27 0 12 -69 78 -97 92 -21 11 -23
9 -24 -19 -3 -81 3 -279 8 -250 2 14 6 36 9 50 6 25 6 25 24 -10 11 -19 29
-64 42 -100 l23 -65 -3 -2645 c-3 -2346 -5 -2653 -19 -2712 -8 -38 -19 -66
-23 -63 -4 3 -10 -2 -14 -10 -3 -8 -12 -15 -21 -15 -13 0 -15 52 -15 448 l0
447 -198 1 c-196 1 -262 10 -246 35 4 7 8 881 10 1943 3 2759 2 2668 24 2730
39 111 96 202 150 239 40 28 9 19 -44 -12z"/>
<path d="M5727 5762 c-14 -15 -17 -40 -17 -124 0 -133 4 -138 113 -138 100 0
107 9 107 140 0 132 -7 140 -109 140 -63 0 -81 -4 -94 -18z"/>
<path d="M4860 5595 c0 -77 4 -125 10 -125 6 0 10 48 10 125 0 77 -4 125 -10
125 -6 0 -10 -48 -10 -125z"/>
<path d="M5830 5270 c-19 -19 -20 -33 -20 -513 0 -481 4 -551 32 -569 22 -13
54 -9 71 10 19 21 19 45 18 623 -1 413 -2 426 -21 447 -26 27 -54 28 -80 2z"/>
<path d="M4860 5058 c0 -122 4 -178 10 -168 13 20 13 350 0 350 -6 0 -10 -67
-10 -182z"/>
<path d="M4861 4373 c-1 -123 3 -193 9 -193 12 0 12 309 0 355 -4 17 -8 -52
-9 -162z"/>
</g>
</svg>
