<?xml version="1.0" standalone="no"?>
<!DOCTYPE svg PUBLIC "-//W3C//DTD SVG 20010904//EN"
 "http://www.w3.org/TR/2001/REC-SVG-20010904/DTD/svg10.dtd">
<svg version="1.0" xmlns="http://www.w3.org/2000/svg"
 width="754.000000pt" height="622.000000pt" viewBox="0 0 754.000000 622.000000"
 preserveAspectRatio="xMidYMid meet">

<g transform="translate(0.000000,622.000000) scale(0.100000,-0.100000)"
fill="#000000" stroke="none">
<path d="M0 3110 l0 -3110 410 0 410 0 0 1218 c0 682 5 1259 10 1314 18 189
70 332 155 426 62 69 108 89 227 97 56 3 122 15 155 27 58 20 62 20 838 8 429
-7 782 -15 785 -18 3 -2 -335 -2 -750 2 -724 7 -759 6 -842 -12 -48 -11 -103
-30 -123 -42 -45 -28 -95 -89 -135 -165 -42 -80 -46 -84 -83 -80 -18 2 -58 6
-90 9 l-59 5 -14 -34 c-7 -19 -21 -79 -29 -134 -13 -85 -15 -274 -15 -1224 0
-1062 5 -1397 20 -1397 3 0 12 17 19 37 63 186 140 351 153 331 4 -7 8 -93 8
-190 l0 -178 605 0 c333 0 605 2 605 5 0 3 -14 36 -30 73 -35 76 -90 235 -90
259 0 9 -15 62 -34 117 -19 56 -42 134 -51 173 -9 40 -21 75 -26 78 -5 4 -9
17 -9 31 0 13 -4 24 -10 24 -5 0 -9 3 -8 8 3 16 -15 112 -21 112 -12 0 -44
119 -37 136 3 8 0 22 -8 29 -7 8 -19 50 -26 94 -8 44 -17 78 -22 75 -4 -3 -5
2 -2 10 3 9 1 16 -5 16 -6 0 -8 7 -5 15 4 8 1 22 -6 30 -7 8 -10 15 -6 15 3 0
1 12 -5 27 -13 32 -21 85 -20 127 0 15 -6 41 -15 57 -8 16 -14 47 -12 69 1 22
-3 45 -10 52 -7 7 -12 27 -12 45 0 18 -9 59 -20 90 -20 60 -26 127 -16 176 5
21 3 27 -10 27 -12 0 -15 9 -14 37 4 82 0 113 -14 113 -11 0 -15 31 -21 143
-4 78 -11 144 -15 147 -4 3 -9 52 -11 110 -3 79 -1 104 8 103 8 -2 10 4 6 15
-11 31 -15 34 -25 21 -6 -10 -8 -1 -4 26 10 74 14 154 6 115 -6 -28 -7 -18 -9
43 -1 53 -5 77 -13 78 -7 1 -2 5 12 9 25 8 24 8 -5 9 -22 1 -26 4 -15 11 10 6
0 10 -35 13 -28 3 311 3 753 1 792 -4 803 -4 852 -25 61 -26 118 -86 154 -163
57 -121 56 -79 56 -1483 l0 -1293 35 0 35 0 2 2613 3 2612 28 90 c35 112 76
184 148 256 63 64 147 111 240 134 36 8 254 28 489 45 234 16 484 34 555 40
483 37 973 70 1049 70 132 0 292 -31 366 -71 89 -47 179 -147 218 -242 18 -42
32 -87 32 -101 0 -25 -2 -26 -61 -26 l-62 0 7 -61 c3 -34 6 -328 6 -652 0
-460 3 -588 12 -579 7 7 23 12 36 12 21 0 23 -2 11 -16 -7 -9 -13 -40 -13 -70
0 -50 -2 -54 -23 -54 l-23 0 0 -192 c0 -149 3 -189 12 -180 7 7 20 12 30 12
15 0 17 -5 11 -27 -5 -16 -7 -47 -6 -70 2 -38 0 -42 -20 -40 l-22 2 1 -1240 1
-1240 31 -125 c84 -337 92 -379 92 -483 0 -56 3 -173 7 -259 l6 -158 449 0
448 0 0 3110 0 3110 -3770 0 -3770 0 0 -3110z m6597 968 c-3 -8 -6 -5 -6 6 -1
11 2 17 5 13 3 -3 4 -12 1 -19z m0 -60 c-3 -8 -6 -5 -6 6 -1 11 2 17 5 13 3
-3 4 -12 1 -19z m-22 -48 c4 -6 -7 -10 -24 -10 -17 0 -31 5 -31 10 0 6 11 10
24 10 14 0 28 -4 31 -10z m5 -500 c0 -5 -11 -10 -24 -10 -14 0 -28 5 -31 10
-4 6 7 10 24 10 17 0 31 -4 31 -10z m-3497 -407 c-13 -2 -35 -2 -50 0 -16 2
-5 4 22 4 28 0 40 -2 28 -4z m-2104 -1247 c-12 -10 -59 -15 -59 -6 0 5 14 10
32 10 17 0 29 -2 27 -4z m61 -634 c0 -25 -36 -62 -61 -62 -19 0 -19 1 3 33 36
50 58 61 58 29z m0 -510 c0 -33 -29 -62 -63 -62 -25 1 -28 3 -16 10 9 5 22 23
29 40 14 33 50 42 50 12z"/>
<path d="M3843 5430 c-40 -21 -107 -85 -131 -126 -9 -15 -14 -16 -20 -6 -7 11
-11 11 -19 0 -34 -41 -44 -207 -18 -294 37 -127 141 -214 254 -214 62 0 104
20 95 45 -4 10 12 32 44 60 159 143 158 418 -1 524 -55 35 -145 40 -204 11z"/>
<path d="M4462 5041 c-68 -24 -115 -69 -155 -151 -29 -58 -32 -74 -32 -155 0
-78 4 -97 28 -147 69 -140 211 -186 330 -107 183 121 181 453 -3 545 -65 33
-107 37 -168 15z"/>
<path d="M3859 4640 c-80 -24 -164 -115 -201 -217 -30 -81 -30 -217 0 -292 45
-114 117 -183 215 -203 193 -40 380 198 338 433 -20 118 -98 230 -186 270 -41
19 -120 23 -166 9z"/>
<path d="M4459 4287 c-94 -62 -94 -243 1 -292 52 -27 95 -20 138 23 130 130 8
367 -139 269z"/>
<path d="M2330 2891 c-24 -47 -1 -121 38 -121 17 0 42 42 42 70 0 57 -57 93
-80 51z m56 -36 c4 -15 1 -32 -7 -41 -19 -23 -44 5 -35 40 8 33 34 34 42 1z"/>
<path d="M5010 2597 c-41 -27 -66 -68 -75 -124 -6 -37 -4 -43 10 -43 44 0 115
107 115 173 0 23 -10 22 -50 -6z"/>
<path d="M5003 2379 c-18 -5 -33 -14 -33 -19 0 -17 -55 -16 -104 3 -27 10 -51
15 -54 12 -3 -3 1 -5 9 -6 8 0 1 -7 -16 -14 -19 -9 -24 -14 -12 -15 15 0 17
-12 17 -116 0 -77 -3 -113 -10 -109 -10 6 -5 -189 5 -222 2 -7 0 -15 -5 -18
-6 -4 -10 -23 -10 -43 0 -29 -3 -34 -11 -22 -10 15 -6 -25 8 -74 4 -13 1 -16
-7 -11 -8 5 -11 4 -6 -3 4 -6 14 -8 23 -5 11 4 14 3 9 -5 -9 -15 -7 -15 44 3
58 20 103 19 150 -5 22 -11 50 -20 64 -20 32 0 81 57 117 135 44 96 44 100 9
125 -17 12 -39 39 -50 60 -39 77 -19 223 39 274 31 28 26 41 -26 75 -49 33
-88 38 -150 20z m-166 -35 c-3 -3 -12 -4 -19 -1 -8 3 -5 6 6 6 11 1 17 -2 13
-5z"/>
<path d="M1740 2015 c0 -8 4 -15 10 -15 5 0 7 7 4 15 -4 8 -8 15 -10 15 -2 0
-4 -7 -4 -15z"/>
<path d="M6481 203 c0 -130 3 -203 9 -203 12 0 12 266 0 350 -5 38 -8 -8 -9
-147z"/>
</g>
</svg>
