<?xml version="1.0" standalone="no"?>
<!DOCTYPE svg PUBLIC "-//W3C//DTD SVG 20010904//EN"
 "http://www.w3.org/TR/2001/REC-SVG-20010904/DTD/svg10.dtd">
<svg version="1.0" xmlns="http://www.w3.org/2000/svg"
 width="774.000000pt" height="601.000000pt" viewBox="0 0 774.000000 601.000000"
 preserveAspectRatio="xMidYMid meet">

<g transform="translate(0.000000,601.000000) scale(0.100000,-0.100000)"
fill="#000000" stroke="none">
<path d="M1719 5472 c-61 -31 -108 -92 -136 -175 -17 -49 -18 -182 -21 -2192
-2 -1389 1 -2167 7 -2216 21 -161 90 -265 202 -306 51 -20 82 -21 444 -25 215
-3 406 -2 425 2 31 7 32 8 8 9 -15 0 -52 10 -82 22 -80 29 -149 107 -178 202
l-23 72 0 2190 c0 2089 1 2192 18 2244 10 29 15 57 10 61 -4 4 -96 31 -203 60
-107 28 -217 58 -244 66 -83 23 -165 18 -227 -14z m8 -3495 c-1 -579 -2 -102
-2 1058 0 1161 1 1634 2 1052 2 -582 2 -1532 0 -2110z m572 3137 c35 -45 23
-104 -20 -104 -41 0 -65 83 -33 114 21 22 29 20 53 -10z"/>
<path d="M3324 5476 c-60 -28 -106 -81 -137 -156 l-22 -55 -3 -2170 c-2 -1382
1 -2192 7 -2233 19 -122 89 -230 173 -268 l43 -19 -105 -6 c-58 -3 179 -6 525
-7 347 -1 855 -3 1130 -4 448 -1 505 0 551 16 109 36 176 130 195 273 6 52 9
748 7 2058 l-3 1980 -23 64 c-42 115 -102 182 -200 221 -26 11 -173 54 -327
96 -361 98 -413 112 -635 175 -231 65 -316 71 -392 26 -37 -22 -80 -65 -104
-105 -1 -2 -103 25 -225 59 -290 80 -285 78 -349 79 -37 0 -72 -8 -106 -24z
m27 -173 c-8 -26 -11 -706 -11 -2228 0 -2243 0 -2193 34 -2335 3 -14 -5 -2
-18 25 -14 28 -30 82 -36 120 -7 49 -10 726 -8 2230 3 2038 4 2162 21 2199 21
48 32 42 18 -11z m776 -2221 c-1 -400 -2 -70 -2 733 0 803 1 1130 2 727 2
-404 2 -1061 0 -1460z m-40 2146 c-3 -7 -5 -2 -5 12 0 14 2 19 5 13 2 -7 2
-19 0 -25z m-212 -94 c18 -7 45 -54 45 -79 0 -8 -9 -24 -20 -35 -48 -48 -101
51 -57 108 11 14 10 14 32 6z m-588 -3081 c-1 -560 -2 -102 -2 1017 0 1119 1
1577 2 1018 2 -560 2 -1476 0 -2035z m801 2330 c-1 -390 -4 -656 -7 -593 -7
132 -3 1300 4 1300 3 0 4 -318 3 -707z m1540 -150 l-3 -127 -53 -40 c-29 -23
-60 -52 -69 -66 -17 -24 -16 -24 22 4 22 16 54 41 70 54 l30 25 3 -78 c2 -43
1 -84 -2 -91 -3 -7 -22 -20 -43 -30 -45 -21 -142 -82 -161 -101 -7 -7 -16 -13
-20 -13 -11 0 -107 -89 -102 -94 3 -2 30 13 60 34 30 21 83 55 118 76 35 21
80 53 102 71 21 18 41 33 44 33 3 0 6 -73 6 -162 l0 -163 -78 -43 c-98 -55
-236 -153 -304 -218 -97 -91 -122 -128 -274 -395 -115 -202 -256 -598 -319
-901 -16 -73 -50 -285 -85 -533 -10 -71 -26 -155 -34 -185 l-15 -55 0 47 c-1
26 6 94 14 150 32 214 57 378 81 517 14 79 23 148 21 155 -5 12 -5 11 -42
-149 -14 -60 -30 -126 -35 -145 -5 -19 -14 -71 -20 -115 -25 -165 -29 -164
-28 5 0 91 -3 178 -7 193 -5 17 -3 33 4 40 8 8 11 4 11 -16 0 -15 4 -27 9 -27
4 0 11 33 14 73 23 265 151 759 261 1006 25 57 46 110 46 118 0 14 39 182 66
288 38 144 145 402 227 548 21 38 36 71 34 74 -8 7 -52 -56 -90 -127 -18 -36
-49 -90 -67 -120 -18 -30 -54 -99 -81 -154 -27 -54 -62 -115 -77 -135 -46 -58
-73 -108 -135 -241 -89 -190 -138 -362 -172 -602 -18 -131 -45 -281 -50 -286
-5 -5 1 87 16 263 16 177 16 181 44 300 14 61 30 132 35 158 21 104 88 317
150 477 38 96 110 227 145 263 19 20 35 38 35 42 0 3 28 33 63 68 67 67 100
110 111 145 4 12 12 22 18 22 5 0 8 5 6 11 -2 6 14 29 36 50 47 46 39 49 -29
10 -47 -28 -85 -60 -182 -154 -24 -23 -43 -35 -43 -28 0 22 144 156 221 206
92 59 276 152 331 166 83 21 113 27 141 28 l28 1 -3 -127z m-1621 -440 c-1
-43 -3 -10 -3 72 0 83 2 118 3 78 2 -40 2 -107 0 -150z m864 104 c-10 -9 -11
-8 -5 6 3 10 9 15 12 12 3 -3 0 -11 -7 -18z m-171 -355 c-26 -76 -58 -178 -70
-225 -13 -48 -25 -86 -26 -84 -7 7 27 156 55 242 29 88 77 205 84 205 2 0 -17
-62 -43 -138z m-613 -39 c-2 -32 -3 -6 -3 57 0 63 1 89 3 58 2 -32 2 -84 0
-115z m0 -260 c-2 -38 -3 -7 -3 67 0 74 1 105 3 68 2 -38 2 -98 0 -135z m0
-1670 c-1 -296 -2 -56 -2 532 0 589 1 831 2 538 2 -292 2 -774 0 -1070z m410
625 c-2 -13 -4 -5 -4 17 -1 22 1 32 4 23 2 -10 2 -28 0 -40z m10 -700 c-3 -8
-6 -5 -6 6 -1 11 2 17 5 13 3 -3 4 -12 1 -19z m-420 -610 c-2 -13 -4 -3 -4 22
0 25 2 35 4 23 2 -13 2 -33 0 -45z"/>
<path d="M5167 3728 c-62 -108 -145 -288 -132 -288 1 0 35 66 76 148 40 81 79
155 87 165 8 9 10 17 5 17 -6 0 -22 -19 -36 -42z"/>
<path d="M2734 5295 c-36 -15 -54 -51 -54 -110 0 -138 133 -222 188 -118 7 12
12 45 12 73 0 107 -73 186 -146 155z"/>
<path d="M2950 5105 c0 -8 5 -15 10 -15 6 0 10 7 10 15 0 8 -4 15 -10 15 -5 0
-10 -7 -10 -15z"/>
<path d="M2412 4486 c7 -8 15 -12 17 -11 5 6 -10 25 -20 25 -5 0 -4 -6 3 -14z"/>
<path d="M2400 4139 c0 -5 5 -7 10 -4 6 3 10 8 10 11 0 2 -4 4 -10 4 -5 0 -10
-5 -10 -11z"/>
<path d="M2394 3146 c-8 -22 3 -33 18 -18 9 9 9 15 0 24 -9 9 -13 7 -18 -6z"/>
</g>
</svg>
